<?xml version="1.0" ?>
<!-- Uploaded to: SVG Repo, www.svgrepo.com, Generator: SVG Repo Mixer Tools -->
<svg fill="#000000" width="800px" height="800px" viewBox="0 0 64 64" xmlns="http://www.w3.org/2000/svg">
<title/>
<g id="Partnership">
<path d="M32,23a9,9,0,1,0,9,9A9,9,0,0,0,32,23Zm0,16a7,7,0,1,1,7-7A7,7,0,0,1,32,39Z"/>
<path d="M53,14.5V18H51V14.5a3,3,0,0,0-.88-2.13,3.29,3.29,0,0,0-.81-.57,31668741.9,31668741.9,0,0,0-.52.12A3.84,3.84,0,0,1,48,12H48a4,4,0,0,1-.77-.08l-.24,0-.27-.07A3,3,0,0,0,45,14.5V18H43V14.5a5,5,0,0,1,1.81-3.84A4.45,4.45,0,0,1,43.5,7.5a4.5,4.5,0,1,1,7.69,3.16c.12.09.23.19.34.29A5.05,5.05,0,0,1,53,14.5Z"/>
<path d="M37,57.5V61H35V57.5a3,3,0,0,0-.88-2.13,3.29,3.29,0,0,0-.81-.57,31668717.6,31668717.6,0,0,0-.52.12A3.84,3.84,0,0,1,32,55H32a4,4,0,0,1-.77-.08l-.24,0-.27-.07A3,3,0,0,0,29,57.5V61H27V57.5a5,5,0,0,1,1.81-3.84A4.45,4.45,0,0,1,27.5,50.5a4.5,4.5,0,1,1,7.69,3.16c.12.09.23.19.34.29A5.05,5.05,0,0,1,37,57.5Z"/>
<path d="M21,14.5V18H19V14.5a3,3,0,0,0-.88-2.13,3.29,3.29,0,0,0-.81-.57l-.26.06a2.43,2.43,0,0,1-.26.06A3.84,3.84,0,0,1,16,12H16a4,4,0,0,1-.77-.08l-.24,0-.27-.07A3,3,0,0,0,13,14.5V18H11V14.5a5,5,0,0,1,1.81-3.84A4.45,4.45,0,0,1,11.5,7.5a4.5,4.5,0,1,1,7.69,3.16c.12.09.23.19.34.29A5.05,5.05,0,0,1,21,14.5Z"/>
<path d="M31,34.11l-2.7-2.45-1.35,1.48,3.52,3.2a1,1,0,0,0,.67.26h.1a1,1,0,0,0,.71-.4L37.21,29l-1.61-1.18Z"/>
</g>
</svg>